<svg version="1" xmlns="http://www.w3.org/2000/svg" width="498.667" height="498.667" viewBox="0 0 374 374"><path d="M304.3 49.5c-2.4.7-5.9 2.3-7.9 3.4-3.2 1.9-4.1 2-6.6 1-8.2-3.4-22.5 3.6-62.3 30.2-23.5 15.7-25.9 17.1-47.5 28.2-9.6 4.9-19.4 10.3-21.8 12-4.9 3.5-12.1 12-16 18.7-1.4 2.5-3.1 4.8-3.7 5.2-.6.5-.4.8.5.8s1.1.3.5.8c-1.5 1-1.1 6.7.6 8.8 1.2 1.6 1.2 1.7-.1.9-1.3-.8-1.3-.7-.1.9.8.9 2 1.5 2.8 1.2.8-.3 1.2-.2.9.3-1.2 1.9 5.9 3.4 8.2 1.8.6-.5 1.2-.6 1.2-.2 0 .4.6.2 1.4-.4.7-.6 2.2-.9 3.2-.5 1.6.5 1.6.4.4-.5-1.2-.8-1.2-1.1-.1-1.1 1.6 0 12.3-7.6 16.9-11.9 1.7-1.7 3.2-2.8 3.2-2.4 0 .4 1.1-.8 2.5-2.7 1.4-1.9 2.5-3 2.5-2.4 0 .5.5.2 1.1-.6.8-1.2.9-.9.4 1-.3 1.4-.8 3.6-1 5-.2 1.4-.8 3.7-1.4 5.2-.6 1.6-.8 2.8-.6 2.8.3 0-.1 1.5-.9 3.4s-1.2 3.7-.9 4c.3.2.1 1.1-.3 1.8-.5.7-.9 1.7-1 2.3-.1.5-.8 3-1.5 5.5-1.6 5.6-1.5 5.2-2.2 7-.3.8-1.1 3.5-1.7 6-.7 2.5-1.7 5.1-2.2 5.7-.6.7-.7 1.3-.3 1.3.4 0 .2.7-.5 1.5s-.9 1.5-.5 1.5.2.7-.5 1.5-.9 1.5-.5 1.5.3.6-.3 1.2c-.5.7-1.3 2.8-1.7 4.6-.3 1.7-1.1 3.2-1.7 3.2-.6 0-.8.3-.5.7.4.3.2 1.2-.4 2-.6.7-.8 1.3-.5 1.3.4 0 .1 1-.6 2.2-.6 1.3-1.3 2.7-1.4 3.3-.6 3.3-17.2 37.3-22.5 46.1-1.1 1.8-3.6 4-5.7 4.9-5 2.4-57 28.4-65.6 32.9-7.5 3.9-9.6 4.4-9.6 2.2 0-3.8 13.4-39.5 23-61.1.5-1.1 4.3-10.1 8.5-20s8.3-19.4 9-21c4.6-10.1 28.3-66.5 31.1-74 4.3-11.4 5.3-18.5 3-22-2.5-3.8-7.1-5.3-15.3-5-5.8.1-8.5.8-13.7 3.4C97.2 106 89.5 113 85.7 119c-1 1.7-2.2 3-2.6 3-.4 0-.7 1-.8 2.2-.1 1.1-.8 2.5-1.5 2.9-.7.5-.9.9-.4.9s.3.7-.4 1.5-.9 1.5-.4 1.5.4.4-.1.8c-.9.6-3.8 8.6-3.5 9.4.1.2-.4 1.6-1 3.3-1.2 3.1-2 6.6-2.3 9.7-.1 1-.4 1.8-.7 1.8-.3 0-.7 1-.7 2.2-.2 2.4-1 6.3-1.4 6.3-.1 0-.3.9-.5 2-.6 4.4-1.4 6.8-2.6 8.3-1 1.2-1 1.4 0 .8.6-.4 1.2-.2 1.2.3 0 .6-.4 1.1-.8 1.1-.5 0-.9.6-1 1.2-.1.7-.4 2.4-.6 3.8-.2 1.4-.5 3.1-.5 3.8-.1.7-.4 1.1-.8.9-.5-.3-.9.9-1 2.6-.1 1.8-.4 4.1-.6 5.2-.3 1.1-.6 2.4-.6 2.8-.1.5-.7.5-1.3.1-1-.6-1-.5 0 .8 1 1.2.9 1.8-.3 2.8-1 .9-1.2 1.7-.5 3 .7 1.2.6 2-.1 2.2-.5.2-1.1 1-1.2 1.8-.2.8-.7 2.1-1.1 2.9-.6.9-.5 1.2.2.8.6-.5.8 0 .5 1.3-.3 1.1-1 1.7-1.7 1.3-.6-.3-.8-.3-.4.2.4.4.2 1.5-.5 2.3-1 1.3-.9 1.4.2.7 1.1-.6 1.3-.4.7 1.1-.5 1-1 2.8-1.1 3.9-.1 1.1-.7 3.7-1.3 5.8-.6 2-.8 3.7-.5 3.7.3 0 0 .6-.6 1.3-.6.8-.8 1.7-.4 2 .3.4.1.7-.6.7s-1 .3-.7.8c.2.4-.5 4.3-1.6 8.7-1.1 4.4-2 8.8-2 9.7.1 1-.2 1.8-.6 1.8-.4 0-.8 1.6-.9 3.7-.1 2-.6 4-1.2 4.6-.5.5-.7 1.6-.4 2.3.3.8.1 1.4-.4 1.4s-1 1.2-1.1 2.7c-.1 1.6-.4 3.7-.6 4.8-.3 1.1-.5 2.4-.5 2.8-.1.5-.7.5-1.3.1-1-.6-1-.5-.1.8.7.8 1.1 1.7.9 1.9-.6.6-2.6 10-2.8 12.9 0 .8-.6 2.1-1.2 2.9-.8 1.1-.8 1.3.1.7 1-.5 1.1-.1.4 1.6-.4 1.3-.6 2.9-.3 3.7.3.9 0 1.1-.9.6-1.1-.6-1.2-.5-.2.5 1 1.1.9 1.8-.4 3.3-1.1 1.2-1.3 1.7-.4 1.5.8-.2 1.4.9 1.5 3.4.2 2.5-.1 3.5-.8 3.1-.6-.4-.2.4.9 1.6 1.1 1.3 1.9 3.3 1.8 4.5-.1 1.1 0 1.5.3.9.4-1 1.1-1 2.6-.2s1.9.8 1.4 0c-.5-.7.2-1.1 1.6-1.1 1.8 0 2 .2.8 1-.9.6-1 1-.3 1s1.7-.8 2.2-1.8c.6-.9 1.1-1.1 1.1-.5 0 .8.8.5 2.1-.8 1.1-1.1 2.7-1.8 3.5-1.5.8.3 1.4.1 1.4-.5s.5-.7 1-.4c.6.3 1 .1 1-.5s.5-.8 1-.5c.6.3 1 .2 1-.4 0-.6.7-.8 1.5-.5.8.4 1.5.2 1.5-.3 0-.4.9-1.4 2.1-2.1 1.7-1.1 2-1.1 1.3 0-.6 1-.5 1.1.8.1.8-.7 1.9-.9 2.3-.5.5.4.5.1.1-.6-.6-1 .5-1.7 1.9-1 .2.2 1.1-.6 2-1.7.9-1.1 1.3-1.3.9-.6-.4.9.6.6 2.4-.8 1.8-1.2 3.7-1.9 4.3-1.5.8.4.9.3.5-.4-.6-1.1.6-1.6 2.7-1.3.4 0 .7-.4.7-1 0-.5.4-.7 1-.4.5.3 1 .1 1-.5 0-.7.7-.9 1.6-.6 1 .4 1.3.2.8-.6s-.2-.9 1-.5c.9.4 1.5.3 1.2-.1-.3-.4.4-1.4 1.6-2.1 1.6-1 1.9-1 1.2.1-.4.7.8-.1 2.6-1.7 1.8-1.7 3-2.4 2.6-1.7-.4.6-.3 1.2.2 1.2.6 0 1.3-.7 1.6-1.6.3-.9 1.3-1.4 2.1-1 .8.3 1.7 0 2.1-.6.5-.7.2-.8-.6-.3-.9.5-1.1.4-.6-.3.4-.7 1.6-1.2 2.7-1.2 1 0 1.9-.5 1.9-1 0-.6.7-1 1.5-1s1.5-.4 1.5-.9c0-.7 3.6-2.2 6.2-2.5.3-.1 1-.5 1.5-1s.2-.6-.6-.1c-1 .6-1.2.4-.6-.4.4-.7 1.8-1.1 3.1-.8 1.3.2 2.1 0 1.8-.5-.3-.5.3-1.2 1.5-1.5 1.2-.3 2.1-1 2.1-1.5s.6-.8 1.3-.5c.6.2 1.8-.3 2.5-1.2 1-1.2 1.2-1.3.6-.1-.7 1.3-.5 1.3.9.2.9-.8 2.2-1 2.8-.6.7.4.9.3.6-.3-.8-1.2 2-2.6 3.4-1.7.5.3.9-.2.9-1.2 0-1.4.2-1.5 1.7-.3.9.8 1.4.9 1 .2-.7-1.1 2.8-3 4.6-2.5 1.3.4 6.7-3.1 6.7-4.3 0-.5.5-.3 1 .5.6 1 1 1.1 1 .2 0-.6 1.2-1.2 2.8-1.2 1.8 0 2.3-.3 1.4-.9-1-.6-.9-1 .7-1.4 1.4-.3 1.9-.1 1.4.6-.9 1.4 5-2.7 6.6-4.7 2-2.4 2.4-7.9.8-10.1-1.5-1.9-1.6-1.9-5.1-.2-2 .9-3.8 1.7-4.1 1.7-1.5 0 2.6-10.4 12.6-31.8 2.2-4.5 3.9-8.4 3.9-8.6 0-.2 2.5-5.6 5.5-12.1 3-6.4 5.5-11.8 5.5-12.1 0-1.1 27.6-55.5 33-64.9 3.7-6.5 9-17.2 9-18.1 0-1.4 5.2-5.4 7.2-5.4 1 0 1.8-.5 1.8-1 0-.6.6-1 1.4-1 .8 0 1.6-.6 1.9-1.3.3-.6 2.2-2.1 4.3-3.2 4.1-2.1 4.4-2.3 8.3-5.5 1.3-1.1 2.7-2 3-2 .3 0 2.2-1.4 4.1-3 1.9-1.7 4.3-3.3 5.3-3.6.9-.3 1.7-1 1.7-1.6 0-.5.7-.7 1.6-.4.8.3 1.2.2.9-.4-.8-1.2 3.2-3.3 4.8-2.4.6.4.9.4.5-.1-1.1-1.2 2.1-3.8 3.8-3.1.8.3 1.3.2 1-.3-.3-.5.1-1.1.9-1.5 2.9-1.1 1.6 4.2-3.6 14.1-2.8 5.4-5.8 10.6-6.6 11.5-.9 1-1.3 1.8-.9 1.8s-.2 1.3-1.3 2.9c-1.2 1.6-2.1 3.1-2.1 3.3 0 .6-16.5 29.5-17.7 31.1-.6.6-1.8 3.4-2.8 6.2-1 2.7-2.1 5.3-2.5 5.7-.9 1.2.1 7.8 1.2 7.8.6 0 .4.8-.3 1.7-.7 1-.9 1.5-.4 1 .4-.4 1.9 0 3.2.8 1.4.9 2.3 1.1 2.3.5 0-.6.5-.8 1-.5.6.4.8 1 .5 1.5-.6 1 2.1.7 3.1-.3.4-.4 1.4-.1 2.2.6 1 .8 1.3.8.9.1-.7-1.3 1.9-2.8 3.3-1.9.4.3 1.1-.2 1.4-1.1.5-1.4.9-1.4 2.4-.3.9.7 1.4.9 1 .5-.8-.9 3.1-4.3 4.5-3.8.4.1.7-.3.7-.9 0-.5.5-.7 1-.4.6.3 1 .1 1-.4 0-.6.7-1.1 1.5-1.1s1.5-.4 1.5-.8c0-.5 1.6-1.4 3.5-2.2 1.9-.8 3.5-1.9 3.5-2.4 0-.6.5-.4 1 .4.8 1.3 1 1.2 1-.3 0-1 .5-1.5 1-1.2.6.3 1 .2 1-.2 0-.5.9-1.4 2.1-2.1 1.7-1.1 2-1.1 1.4 0-.3.7.1.4 1-.7s2.1-1.9 2.6-1.8c.5.2.9-.2.9-.7 0-.6.7-1 1.5-1s1.5-.5 1.5-1.1c0-.6.7-.9 1.5-.5.8.3 1.4 0 1.2-.6-.1-.5.6-1.2 1.5-1.3.9-.2 2.7-1.2 3.9-2.4 2.7-2.5 4.3-1.8 2.8 1.2-1.9 3.5-12.2 18.2-13.1 18.5-.4.2-.8.8-.8 1.3s-2.2 3.9-4.8 7.6c-2.6 3.8-7.5 10.6-10.7 15.3-3.2 4.7-7.8 11.2-10.2 14.5-14.1 19.8-22.6 32.8-29.3 45-1.8 3.3-5.7 9.7-8.6 14.2-6.4 9.6-9.1 15.4-8.9 18.5.1 1.9.8 2.3 3.3 2.3 2.6 0 2.9.2 1.9 1.5-.7.9-.4.8.9-.3 1.1-.9 2.4-1.4 2.9-1 .4.5.5.2.1-.5-.4-.6-.2-1.3.3-1.3.6-.1 1.7-.2 2.4-.3.6 0 1.2-.6 1.2-1.3 0-.6 1.1-2.2 2.5-3.5 1.4-1.2 2.5-2.6 2.5-3 0-.3 1-1.8 2.3-3.2 1.2-1.5 2.2-3 2.2-3.5s.4-1.1.9-1.3c.4-.2 3.4-4.1 6.6-8.8 8.1-11.8 9.1-13 10-12.2.5.4.5.2.2-.4-.3-.6.7-2.5 2.3-4.3 1.7-1.8 3-3.5 3-3.8 0-1.3 3.8-5.2 4.5-4.5.5.4.5.1.1-.6-.5-.8.1-2 1.4-3.2 1.2-1 2.2-2.2 2.3-2.7.1-.4.6-.7 1-.5.5.1.6-.2.3-.6-.3-.5.6-2.2 1.9-3.6 1.4-1.5 2.5-3.1 2.5-3.6s.7-1.3 1.6-1.8c.9-.5 1.7-1.3 1.7-1.8.1-.5.5-.8.9-.7.5.2.7 0 .7-.5-.3-1.9.2-3.3 1-2.8.5.3 1.1-.4 1.4-1.5.4-1.4 1-1.8 1.9-1.3.7.4 1 .4.6-.1-.4-.4-.2-1.7.4-2.9 1.7-3.1 11.1-16 12-16.4.5-.2.8-1 .8-1.8s.5-1.4 1-1.4c.6 0 1-.7 1-1.6 0-.8.5-1.2 1-.9.9.6 1.4-.8 1.1-2.8 0-.4.3-.7.8-.7s1.3-.9 1.6-2c.4-1.1 1.1-1.7 1.7-1.4.6.4.8.2.5-.3-.4-.6.2-2.2 1.3-3.6s2-3 2-3.6c0-.6.4-1.1.9-1.1s1.4-1.3 2.1-3c.7-1.6 1.7-2.7 2.3-2.3.5.3.7.1.4-.4-.4-.6.6-2.8 2.1-4.9 1.6-2.2 2.9-4.2 3-4.7.3-2.2 5.6-10.6 6.3-10.1.5.3.7-.1.4-.8-.3-.7.6-3.9 1.9-7.1 2.6-6.4 2.5-11.5-.2-13.5-3.3-2.6-17.3-1-30.7 3.6-6.6 2.2-12.1 4-12.2 3.8-.3-.3 7.8-12.8 9.4-14.4.7-.7 1.3-1.7 1.3-2.2 0-.5 1.1-2 2.4-3.3 1.4-1.4 2.3-2.7 2-2.9-.2-.3.7-1.7 2-3.1 1.3-1.4 2.1-2.8 1.9-3.1-.3-.3.2-.8 1.1-1.2.9-.3 1.6-1.2 1.6-2s.5-1.4 1-1.4c.6 0 1-.4 1-.9 0-.4 2-3.9 4.5-7.5 6.5-9.8 6-16.2-1.6-20.6-4.8-2.6-11-3.2-16.6-1.5z"/><path d="M37 320c0 .5.5 1 1.1 1 .5 0 .7-.5.4-1-.3-.6-.8-1-1.1-1-.2 0-.4.4-.4 1zm15 1c-.9.6-1 1-.3 1 .6 0 1.5-.5 1.8-1 .8-1.2.4-1.2-1.5 0z"/></svg>